<?xml version="1.0" standalone="no"?>
<!DOCTYPE svg PUBLIC "-//W3C//DTD SVG 20010904//EN"
 "http://www.w3.org/TR/2001/REC-SVG-20010904/DTD/svg10.dtd">
<svg version="1.0" xmlns="http://www.w3.org/2000/svg"
 width="512.000000pt" height="512.000000pt" viewBox="0 0 512.000000 512.000000"
 preserveAspectRatio="xMidYMid meet">
<metadata>
Created by potrace 1.14, written by Peter Selinger 2001-2017
</metadata>
<g transform="translate(0.000000,512.000000) scale(0.100000,-0.100000)"
fill="#000000" stroke="none">
<path d="M1502 5104 c-72 -16 -182 -58 -229 -88 -31 -20 -47 -57 -40 -96 1 -8
-25 -41 -58 -72 -48 -45 -64 -55 -77 -47 -34 19 -69 -1 -107 -62 -21 -33 -40
-56 -44 -53 -4 4 -35 12 -69 19 -274 51 -538 -110 -619 -377 -55 -181 -3 -392
129 -527 72 -73 122 -104 219 -137 159 -54 353 -24 481 73 l33 25 52 -40 c76
-58 124 -86 199 -115 248 -99 523 -64 751 96 31 22 57 44 57 48 0 16 21 10 54
-16 48 -36 133 -73 206 -88 371 -76 704 252 634 625 -51 270 -281 453 -554
441 -42 -1 -96 -10 -119 -18 -38 -13 -42 -13 -48 3 -14 37 -90 140 -143 193
-94 93 -213 163 -340 199 -93 27 -275 34 -368 14z"/>
<path d="M938 3575 c-42 -23 -44 -64 -13 -265 2 -14 7 -52 10 -85 3 -33 8 -71
10 -85 3 -23 9 -80 21 -220 2 -30 6 -73 9 -95 2 -22 7 -80 10 -130 4 -49 8
-111 10 -137 2 -27 -1 -48 -6 -48 -5 0 -9 4 -9 8 0 32 -189 233 -264 281 -50
31 -72 32 -112 6 -34 -22 -38 -52 -20 -142 9 -43 18 -94 21 -113 3 -19 10 -60
15 -90 12 -75 19 -123 25 -178 3 -26 7 -60 10 -77 2 -16 7 -57 10 -90 3 -33 8
-74 10 -92 4 -26 -1 -36 -27 -58 -52 -44 -103 -65 -158 -65 -58 0 -90 14 -174
77 -86 64 -140 86 -214 87 -56 1 -66 -2 -83 -23 -19 -23 -20 -41 -17 -595 l3
-571 28 -56 c32 -66 100 -132 163 -160 24 -11 78 -24 119 -28 88 -10 133 -36
166 -95 18 -32 22 -57 24 -151 4 -186 51 -278 176 -345 l64 -35 1550 -3 c853
-1 1560 0 1571 3 12 3 31 20 41 38 18 29 24 32 64 31 24 -1 61 -2 82 -3 25 -1
37 -6 37 -15 0 -8 12 -24 27 -36 25 -20 37 -21 138 -18 101 3 116 6 178 36 51
25 77 46 107 86 57 76 71 123 75 258 2 97 6 123 24 155 33 58 77 83 168 94 43
6 97 18 120 29 61 27 129 94 160 159 l28 56 3 571 c3 668 11 620 -100 618 -78
-2 -128 -23 -221 -92 -38 -28 -84 -56 -104 -63 -54 -17 -131 -7 -179 24 -45
30 -43 18 -29 156 3 36 7 79 9 95 2 17 7 58 11 91 4 33 9 67 10 75 6 36 16 97
20 125 2 17 14 87 26 156 22 121 22 128 5 153 -27 42 -61 50 -110 26 -48 -23
-173 -140 -236 -220 l-43 -55 7 80 c18 210 34 388 41 435 2 14 9 70 15 125 6
55 13 111 16 125 2 14 7 54 10 90 6 61 5 66 -20 90 -30 28 -84 32 -112 10 -27
-23 -118 -141 -167 -217 -52 -80 -130 -235 -172 -343 -35 -92 -41 -99 -49 -63
-15 58 -98 258 -148 356 -62 122 -149 254 -210 320 -52 55 -90 62 -134 23 -24
-20 -27 -30 -26 -77 1 -30 4 -63 6 -75 2 -12 7 -43 10 -70 20 -168 22 -188 31
-279 4 -38 8 -77 10 -85 2 -8 6 -62 10 -120 4 -58 8 -112 10 -120 2 -8 6 -64
10 -124 l7 -109 -60 74 c-102 128 -239 248 -279 244 -77 -7 -97 -47 -76 -155
19 -101 27 -148 38 -225 3 -22 8 -51 10 -65 9 -50 36 -280 49 -424 l6 -58 -55
4 c-47 4 -66 12 -128 57 -95 68 -160 99 -227 107 -47 5 -59 3 -82 -16 -16 -12
-28 -30 -28 -41 0 -12 -12 -24 -35 -33 -19 -8 -52 -29 -74 -46 -39 -32 -40
-32 -69 -15 -28 17 -32 17 -77 1 -70 -23 -95 -22 -90 6 2 13 6 56 10 96 6 78
7 94 30 287 9 76 34 229 55 336 21 107 21 115 -1 147 -24 34 -69 43 -110 24
-35 -18 -195 -170 -246 -237 l-31 -39 4 29 c2 17 6 66 9 110 3 44 7 91 10 105
2 14 7 63 11 110 3 47 7 87 9 90 1 3 6 46 10 95 4 50 8 92 10 95 1 3 6 32 9
65 4 33 11 87 16 120 4 33 8 68 7 77 -1 28 -40 66 -76 73 -31 7 -37 3 -90 -51
-107 -111 -254 -362 -322 -552 -21 -61 -23 -63 -35 -40 -7 12 -13 31 -14 41 0
9 -4 25 -10 35 -5 9 -21 49 -36 87 -71 188 -204 416 -304 521 -45 48 -74 55
-122 29z"/>
</g>
</svg>
