<svg xmlns="http://www.w3.org/2000/svg" xmlns:xlink="http://www.w3.org/1999/xlink" viewBox="0,0,256,256" width="100px" height="100px" fill-rule="nonzero"><g fill="none" fill-rule="nonzero" stroke="none" stroke-width="1" stroke-linecap="none" stroke-linejoin="none" stroke-miterlimit="10" stroke-dasharray="" stroke-dashoffset="0" font-family="none" font-weight="none" font-size="none" text-anchor="none" style="mix-blend-mode: normal"><g transform="scale(2.56,2.56)"><path d="M70,82h-39c-6.6,0 -12,-5.4 -12,-12v-39c0,-6.6 5.4,-12 12,-12h39c6.6,0 12,5.4 12,12v39c0,6.6 -5.4,12 -12,12z" fill="#fe0000" stroke="none" stroke-linecap="butt" stroke-linejoin="miter"></path><path d="M69.994,82.994h-39c-7.18,0 -13,-5.82 -13,-13v-39c0,-7.18 5.82,-13 13,-13h39c7.18,0 13,5.82 13,13v39c0,7.18 -5.821,13 -13,13zM19.994,30.994v39c0,6.075 4.925,11 11,11h39c6.075,0 11,-4.925 11,-11v-39c0,-6.075 -4.925,-11 -11,-11h-39c-6.076,0 -11,4.925 -11,11z" fill="#000000" stroke="none" stroke-linecap="butt" stroke-linejoin="miter"></path><path d="M67.156,77.994h-33.325c-5.985,0 -10.837,-4.852 -10.837,-10.837v-33.326c0,-5.985 4.852,-10.837 10.837,-10.837h33.663c0.276,0 0.5,0.224 0.5,0.5c0,0.276 -0.224,0.5 -0.5,0.5h-33.663c-5.433,0 -9.837,4.404 -9.837,9.837v33.325c0,5.433 4.405,9.838 9.838,9.838h33.325c5.433,0 9.837,-4.404 9.837,-9.837v-18.663c0,-0.276 0.224,-0.5 0.5,-0.5c0.276,0 0.5,0.224 0.5,0.5v18.662c0,5.986 -4.853,10.838 -10.838,10.838zM77.494,45.573c-0.276,0 -0.5,-0.224 -0.5,-0.5v-4c0,-0.276 0.224,-0.5 0.5,-0.5c0.276,0 0.5,0.224 0.5,0.5v4c0,0.277 -0.224,0.5 -0.5,0.5zM77.494,39.573c-0.276,0 -0.5,-0.224 -0.5,-0.5v-2c0,-0.276 0.224,-0.5 0.5,-0.5c0.276,0 0.5,0.224 0.5,0.5v2c0,0.277 -0.224,0.5 -0.5,0.5z" fill="#000000" stroke="none" stroke-linecap="butt" stroke-linejoin="miter"></path><path d="M67.914,58.914l-25.828,-25.828c-0.375,-0.375 -0.884,-0.586 -1.414,-0.586h-6.172c-1.105,0 -2,0.895 -2,2v6.172c0,0.53 0.211,1.039 0.586,1.414l25.828,25.828c0.375,0.375 0.884,0.586 1.414,0.586h6.172c1.105,0 2,-0.895 2,-2v-6.172c0,-0.53 -0.211,-1.039 -0.586,-1.414z" fill="#ffffff" stroke="none" stroke-linecap="butt" stroke-linejoin="miter"></path><path d="M32.5,52.5c0,0 2.5,5.5 6.5,9.5c4,4 9.5,6.5 9.5,6.5h-14c-1.105,0 -2,-0.895 -2,-2z" fill="#ffffff" stroke="none" stroke-linecap="butt" stroke-linejoin="miter"></path><path d="M68.5,48.5c0,0 -2.5,-5.5 -6.5,-9.5c-4,-4 -9.5,-6.5 -9.5,-6.5h14c1.105,0 2,0.895 2,2z" fill="#ffffff" stroke="none" stroke-linecap="butt" stroke-linejoin="miter"></path><path d="M67.914,58.914l-25.828,-25.828c-0.375,-0.375 -0.884,-0.586 -1.414,-0.586h-6.172c-1.105,0 -2,0.895 -2,2v6.172c0,0.53 0.211,1.039 0.586,1.414l25.828,25.828c0.375,0.375 0.884,0.586 1.414,0.586h6.172c1.105,0 2,-0.895 2,-2v-6.172c0,-0.53 -0.211,-1.039 -0.586,-1.414z" fill="none" stroke="#000000" stroke-linecap="round" stroke-linejoin="round"></path><path d="M32.5,52.5c0,0 2.5,5.5 6.5,9.5c4,4 9.5,6.5 9.5,6.5h-14c-1.105,0 -2,-0.895 -2,-2z" fill="none" stroke="#000000" stroke-linecap="round" stroke-linejoin="round"></path><path d="M68.5,48.5c0,0 -2.5,-5.5 -6.5,-9.5c-4,-4 -9.5,-6.5 -9.5,-6.5h14c1.105,0 2,0.895 2,2z" fill="none" stroke="#000000" stroke-linecap="round" stroke-linejoin="round"></path></g></g></svg>